<?xml version="1.0" standalone="no"?><!DOCTYPE svg PUBLIC "-//W3C//DTD SVG 1.1//EN" "http://www.w3.org/Graphics/SVG/1.1/DTD/svg11.dtd"><svg t="1647315359592" class="icon" viewBox="0 0 1024 1024" version="1.1" xmlns="http://www.w3.org/2000/svg" p-id="4047" xmlns:xlink="http://www.w3.org/1999/xlink" width="16" height="16"><defs><style type="text/css"></style></defs><path d="M652.8 682.666667l-34.133333-34.133334 29.866666-29.866666 34.133334 34.133333c21.333333-25.6 34.133333-59.733333 38.4-98.133333h-42.666667v-42.666667h42.666667c-4.266667-38.4-17.066667-68.266667-38.4-98.133333l-34.133334 34.133333-29.866666-29.866667 34.133333-34.133333c-29.866667-21.333333-64-38.4-98.133333-42.666667v42.666667h-42.666667V341.333333c-38.4 4.266667-68.266667 21.333333-98.133333 42.666667l38.4 38.4-29.866667 29.866667-38.4-38.4c-21.333333 29.866667-38.4 64-42.666667 98.133333h42.666667v42.666667H341.333333c4.266667 38.4 21.333333 72.533333 42.666667 98.133333l38.4-38.4 29.866667 29.866667-38.4 38.4c25.6 21.333333 59.733333 34.133333 98.133333 38.4v-42.666667h42.666667v42.666667c38.4 0 72.533333-17.066667 98.133333-38.4z m115.2-128c-8.533333 110.933333-98.133333 200.533333-213.333333 213.333333h-42.666667c-110.933333-8.533333-200.533333-98.133333-213.333333-213.333333v-42.666667c8.533333-110.933333 98.133333-200.533333 213.333333-213.333333h42.666667c110.933333 8.533333 200.533333 98.133333 213.333333 213.333333v42.666667z m55.466667 196.266666l-29.866667-29.866666c38.4-51.2 59.733333-119.466667 59.733333-187.733334C853.333333 358.4 708.266667 213.333333 533.333333 213.333333S213.333333 358.4 213.333333 533.333333 358.4 853.333333 533.333333 853.333333c72.533333 0 140.8-25.6 192-64l29.866667 29.866667c-59.733333 46.933333-140.8 76.8-221.866667 76.8C332.8 896 170.666667 733.866667 170.666667 533.333333S332.8 170.666667 533.333333 170.666667 896 332.8 896 533.333333c0 81.066667-25.6 157.866667-72.533333 217.6zM533.333333 554.666667c-12.8 0-21.333333-8.533333-21.333333-21.333334 0-8.533333 8.533333-42.666667 21.333333-106.666666 12.8 64 21.333333 98.133333 21.333334 106.666666 0 12.8-8.533333 21.333333-21.333334 21.333334z" fill="#8a8a8a" p-id="4048"></path></svg>