<?xml version="1.0" standalone="no"?><!DOCTYPE svg PUBLIC "-//W3C//DTD SVG 1.1//EN" "http://www.w3.org/Graphics/SVG/1.1/DTD/svg11.dtd"><svg t="1648608595261" class="icon" viewBox="0 0 1232 1024" version="1.1" xmlns="http://www.w3.org/2000/svg" p-id="5691" xmlns:xlink="http://www.w3.org/1999/xlink" width="19.25" height="16"><defs><style type="text/css">@font-face { font-family: feedback-iconfont; src: url("//at.alicdn.com/t/font_1031158_u69w8yhxdu.woff2?t=1630033759944") format("woff2"), url("//at.alicdn.com/t/font_1031158_u69w8yhxdu.woff?t=1630033759944") format("woff"), url("//at.alicdn.com/t/font_1031158_u69w8yhxdu.ttf?t=1630033759944") format("truetype"); }
</style></defs><path d="M195.254237 93.288136h850.440678v850.440678H195.254237z" fill="#F0F2EB" p-id="5692"></path><path d="M256.867797 154.901695h729.38305v729.383051H256.867797z" fill="#FDFFFE" p-id="5693"></path><path d="M1067.389831 965.423729H173.125424V71.159322H1067.389831v894.264407z m-21.694916-872.135593H195.254237v850.440678h850.440678v-850.440678z" fill="#8DC16B" p-id="5694"></path><path d="M994.061017 892.094915H246.454237V144.488136h747.60678v747.606779z m-18.223729-729.383051H264.677966v710.725424h710.725424l0.433898-710.725424z" fill="#8DC16B" p-id="5695"></path><path d="M442.142373 681.220339H798.372881v14.752542h-356.230508zM509.830508 738.061017h220.854238v10.413559h-220.854238zM876.040678 373.586441h-27.335593v154.901695H759.322034V373.586441h-28.20339v180.935593H876.474576l-0.433898-180.935593z m-189.179661 0h-148.39322v180.935593h28.203389v-70.725424h120.189831V373.586441z m-120.189831 84.176271V399.620339h91.986441v58.576271l-91.986441-0.433898z m-68.555932 70.725424h-104.135593V399.620339h103.701695v-26.033898H364.474576v180.935593h133.20678v-26.033898h0.433898z" fill="#8DC16B" p-id="5696"></path><path d="M876.040678 373.586441v-2.60339H846.101695v154.901695h-84.61017V370.983051h-33.410169v186.142373h150.562712V370.983051h-2.60339v2.60339h-2.60339v178.332203H733.288136V376.189831h23.430508v154.901694h94.589831V376.189831h24.732203v-2.60339h-2.60339 2.60339z m-189.179661 0v-2.60339h-150.99661v186.142373h33.410169v-70.725424h120.189831V370.983051h-2.60339v2.60339h-2.60339v107.606779H564.067797v70.725424h-23.430509V376.189831h145.789831v-2.60339h-2.60339 3.037288z m-120.189831 84.176271h2.60339V402.223729h86.779661V455.59322h-89.383051v2.169492h2.60339-2.60339v2.60339h94.155933V397.016949H564.067797v63.783051h2.603389v-3.037288z m-68.555932 70.725424v-2.60339H396.583051V402.223729h103.701695v-31.240678H361.871186v186.142373h138.41356v-31.240678h-2.60339l0.433898 2.60339h-3.037288v23.430508H367.077966V376.189831h128v20.827118H391.376271v134.508475h106.305085v-3.037288h-2.60339 3.037288zM219.986441 16.054237h26.467796v59.01017h-26.467796zM272.054237 16.054237h26.467797v59.01017h-26.467797zM324.122034 16.054237h26.467797v59.01017h-26.467797zM376.189831 16.054237h26.467796v59.01017h-26.467796zM427.823729 16.054237h26.467796v59.01017h-26.467796zM479.891525 16.054237h26.467797v59.01017h-26.467797zM531.959322 16.054237h26.467797v59.01017h-26.467797zM583.59322 16.054237h26.467797v59.01017h-26.467797zM635.661017 16.054237h26.467797v59.01017h-26.467797zM687.728814 16.054237h26.467796v59.01017h-26.467796zM739.362712 16.054237h26.467796v59.01017h-26.467796zM791.430508 16.054237h26.467797v59.01017h-26.467797zM843.498305 16.054237h26.467797v59.01017h-26.467797zM895.132203 16.054237h26.467797v59.01017h-26.467797zM947.2 16.054237h26.467797v59.01017h-26.467797zM999.267797 16.054237h26.467796v59.01017h-26.467796zM1060.881356 115.416949h59.010169v26.467797h-59.010169zM1060.881356 167.484746h59.010169v26.467796h-59.010169zM1060.881356 219.118644h59.010169v26.467797h-59.010169zM1060.881356 271.186441h59.010169v26.467796h-59.010169zM1060.881356 323.254237h59.010169v26.467797h-59.010169zM1060.881356 375.322034h59.010169v26.467797h-59.010169zM1060.881356 426.955932h59.010169v26.467797h-59.010169zM1060.881356 479.023729h59.010169v26.467796h-59.010169zM1060.881356 531.091525h59.010169v26.467797h-59.010169zM1060.881356 582.725424h59.010169v26.467796h-59.010169zM1060.881356 634.79322h59.010169v26.467797h-59.010169zM1060.881356 686.861017h59.010169v26.467797h-59.010169zM1060.881356 738.494915h59.010169v26.467797h-59.010169zM1060.881356 790.562712h59.010169v26.467796h-59.010169zM1060.881356 842.630508h59.010169v26.467797h-59.010169zM1060.881356 894.264407h59.010169v26.467796h-59.010169zM120.623729 115.416949h59.010169v26.467797H120.623729zM120.623729 167.484746h59.010169v26.467796H120.623729zM121.057627 219.552542h59.01017v26.467797H121.057627zM120.623729 271.620339h59.010169v26.467797H120.623729zM120.623729 323.254237h59.010169v26.467797H120.623729zM121.057627 375.322034h59.01017v26.467797H121.057627zM121.057627 427.389831h59.01017v26.467796H121.057627zM120.623729 479.023729h59.010169v26.467796H120.623729zM121.057627 531.091525h59.01017v26.467797H121.057627zM121.057627 583.159322h59.01017v26.467797H121.057627zM120.623729 634.79322h59.010169v26.467797H120.623729zM121.057627 686.861017h59.01017v26.467797H121.057627zM121.057627 738.928814h59.01017v26.467796H121.057627zM120.623729 790.99661h59.010169v26.467797H120.623729zM120.623729 842.630508h59.010169v26.467797H120.623729zM121.057627 894.698305h59.01017v26.467797H121.057627zM219.986441 956.311864h26.467796V1015.322034h-26.467796zM272.054237 956.311864h26.467797V1015.322034h-26.467797zM324.122034 956.311864h26.467797V1015.322034h-26.467797zM376.189831 956.311864h26.467796V1015.322034h-26.467796zM427.823729 956.311864h26.467796V1015.322034h-26.467796zM479.891525 956.311864h26.467797V1015.322034h-26.467797zM531.959322 956.311864h26.467797V1015.322034h-26.467797zM583.59322 956.311864h26.467797V1015.322034h-26.467797zM635.661017 956.311864h26.467797V1015.322034h-26.467797zM687.728814 956.311864h26.467796V1015.322034h-26.467796zM739.362712 956.311864h26.467796V1015.322034h-26.467796zM791.430508 956.311864h26.467797V1015.322034h-26.467797zM843.498305 956.311864h26.467797V1015.322034h-26.467797zM895.132203 956.311864h26.467797V1015.322034h-26.467797zM947.2 956.311864h26.467797V1015.322034h-26.467797zM999.267797 956.311864h26.467796V1015.322034h-26.467796z" fill="#8DC16B" p-id="5697"></path><path d="M303.728814 193.952542m-13.450848 0a13.450847 13.450847 0 1 0 26.901695 0 13.450847 13.450847 0 1 0-26.901695 0Z" fill="#8DC16B" p-id="5698"></path><path d="M937.220339 193.952542m-13.450847 0a13.450847 13.450847 0 1 0 26.901694 0 13.450847 13.450847 0 1 0-26.901694 0Z" fill="#8DC16B" p-id="5699"></path><path d="M303.728814 843.064407m-13.450848 0a13.450847 13.450847 0 1 0 26.901695 0 13.450847 13.450847 0 1 0-26.901695 0Z" fill="#8DC16B" p-id="5700"></path><path d="M937.220339 843.064407m-13.450847 0a13.450847 13.450847 0 1 0 26.901694 0 13.450847 13.450847 0 1 0-26.901694 0Z" fill="#8DC16B" p-id="5701"></path></svg>