<?xml version="1.0" standalone="no"?><!DOCTYPE svg PUBLIC "-//W3C//DTD SVG 1.1//EN" "http://www.w3.org/Graphics/SVG/1.1/DTD/svg11.dtd"><svg t="1648608803481" class="icon" viewBox="0 0 1024 1024" version="1.1" xmlns="http://www.w3.org/2000/svg" p-id="2547" xmlns:xlink="http://www.w3.org/1999/xlink" width="16" height="16"><defs><style type="text/css">@font-face { font-family: feedback-iconfont; src: url("//at.alicdn.com/t/font_1031158_u69w8yhxdu.woff2?t=1630033759944") format("woff2"), url("//at.alicdn.com/t/font_1031158_u69w8yhxdu.woff?t=1630033759944") format("woff"), url("//at.alicdn.com/t/font_1031158_u69w8yhxdu.ttf?t=1630033759944") format("truetype"); }
</style></defs><path d="M963.96 367.021h32.448v-84.629H27.592v84.629h34.334v113.075H27.592v229.961h87.231v-54.992l18.424-22.877h26.066l18.432 22.877v54.992h41.757v-54.992l18.428-22.877h26.066l18.432 22.877v54.992h41.753v-54.992l18.433-22.877h26.065l18.429 22.877v54.992h41.766v-54.992l18.428-22.877h26.065l18.429 22.877v54.992h41.756v-54.992l18.433-22.877h26.062l18.432 22.877v54.992h41.761v-54.992l18.429-22.877h26.065l18.433 22.877v54.992h41.757v-54.992l18.432-22.877h26.062l18.432 22.877v54.992h41.757v-54.992l18.433-22.877h26.061l18.433 22.877v54.992h85.874V480.096H963.96z" fill="#696F6F" p-id="2548"></path><path d="M766.006 377.68h121.8v182.701h-121.8z" fill="#FFFFFF" p-id="2549"></path><path d="M780.26 392.235h93.297V545.82H780.26z" fill="#21A4D4" p-id="2550"></path><path d="M608.555 377.68H730.35v182.701H608.555z" fill="#FFFFFF" p-id="2551"></path><path d="M622.808 392.235h93.293V545.82h-93.293z" fill="#21A4D4" p-id="2552"></path><path d="M451.1 377.68h121.799v182.701H451.1z" fill="#FFFFFF" p-id="2553"></path><path d="M465.353 392.235h93.288V545.82h-93.288z" fill="#21A4D4" p-id="2554"></path><path d="M293.65 377.68h121.794v182.701H293.65z" fill="#FFFFFF" p-id="2555"></path><path d="M307.899 392.235h93.296V545.82h-93.296z" fill="#21A4D4" p-id="2556"></path><path d="M136.19 377.68h121.803v182.701H136.19z" fill="#FFFFFF" p-id="2557"></path><path d="M150.452 392.235h93.288V545.82h-93.288z" fill="#21A4D4" p-id="2558"></path><path d="M27.592 261.746h968.816v77.406H27.592z" fill="#384244" p-id="2559"></path></svg>